<?xml version="1.0" encoding="UTF-8"?>
<svg version="1.1" viewBox="0 0 1175 1104" width="1175" height="1104" xmlns="http://www.w3.org/2000/svg">
<path transform="translate(526)" d="m0 0h53l37 3 28 4 31 6 31 8 37 12 32 13 30 14 22 12 23 14 22 15 19 14 17 14 14 12 16 15 21 21 7 8 13 15 11 14 15 20 12 18 13 21 16 29 11 23 12 29 10 28 10 35 5 22v2l77-11h4v8l-7 3-67 19h-3l4 29 3 36v54l-3 36-5 35-8 37-8 28-10 30-12 29-12 26-15 28-13 21-8 12-12 17-13 17-11 13-9 11-16 17-21 21-8 7-10 9-14 11-15 12-20 14-17 11-15 9-18 10-17 9-29 13-29 11-31 10-40 10-34 6-37 4-16 1h-53l-37-3-28-4-31-6-31-8-37-12-32-13-30-14-22-12-23-14-22-15-19-14-11-9-13-11-20-18-24-24-7-8-13-15-11-14-15-20-12-18-13-21-16-29-12-25-11-27-10-28-10-35-8-37-5-34-3-37v-54l3-37 5-34 8-37 8-28 10-30 11-27 13-28 15-28 13-21 10-15 10-14 13-17 11-13 9-11 16-17 22-22 8-7 15-13 14-11 16-12 30-20 15-9 18-10 17-9 29-13 29-11 31-10 40-10 34-6 37-4zm12 24-34 2-33 4-32 6-32 8-26 8-34 13-28 13-25 13-25 15-22 15-19 14-17 14-10 9-8 7-16 15-16 17-10 11-9 11-14 18-12 17-10 15-9 15-12 21-13 26-13 31-11 31-8 29-7 31-5 32-3 32-1 22v26l2 35 4 33 5 28 10 40 12 36 12 29 14 29 12 22 16 26 12 17 16 21 11 13 9 11 11 11 7 8 9 9 8 7 13 12 11 9 15 12 18 13 23 15 24 14 27 14 27 12 35 13 35 10 26 6 37 6 32 3 21 1h29l34-2 33-4 32-6 32-8 26-8 34-13 28-13 25-13 25-15 22-15 19-14 17-14 10-9 8-7 16-15 16-17 10-11 9-11 14-18 12-17 13-20 13-22 15-29 12-27 11-29 10-33 8-34 6-37 3-32 1-22v-26l-2-35-4-33-1-3-10 2-48 15-50 16-33 11 2 39-1 33-3 28-7 36-9 31-9 24-9 20-10 20-12 20-13 19-13 17-12 14-12 13-14 14-8 7-13 11-16 12-18 12-15 9-22 12-27 12-22 8-28 8-29 6-31 4-14 1h-40l-32-3-29-5-28-7-27-9-24-10-21-10-24-14-18-12-16-12-11-9-10-9-8-7-17-17-7-8-11-13-14-19-10-15-14-24-12-24-10-25-9-27-6-24-5-27-3-28-1-18-11 1h-23l-9-2-7-6-6-8v-11l4-10 7-12 11-12 7-7 15-11 20-12 8-31 10-29 13-30 14-26 12-19 10-14 10-13 11-13 9-10 23-23 11-9 12-10 18-13 19-12 18-10 22-11 28-11 21-7 32-8 31-5 21-2h52l29 3 28 5 30 8 24 8 26 11 26 13 23 14 17 12 13 10 13 11 12 11 21 21 9 11 3 3 15 20 14 21 11 19 9 17 12 28 12 36 5 18 53-11 48-8 42-6 1-2-10-40-12-36-12-29-14-29-12-22-13-21-15-22-13-17-8-10-11-13-24-26-7-7-8-7-13-12-11-9-15-12-18-13-23-15-24-14-27-14-27-12-35-13-35-10-26-6-37-6-32-3-21-1zm-12 162-30 3-28 5-24 6-27 9-26 11-20 10-17 10-21 14-17 13-13 11-12 11-18 18-9 11-11 13-14 20-13 21-14 27-10 23-3 8v3h74l61-22 38-14-2-2-22-8-13-8-9-8-7-11-4-11-2-17 3-14 7-12 10-10 13-8 12-5 17-5h16l21 2 22 10 15 10 6 5 9 12 4 11v18l-5 15-8 16 27-5 14-41 20-61 18-55 9-29zm28 0 12 37 16 49 14 43 10 31 2 1 122-24 44-8 49-5-1-4-25-25-11-9-12-10-18-13-19-12-22-12-21-10-29-11-28-8-30-6-24-3-13-1zm-6 15-19 57-14 43-22 67 4 1 100-20-3-11-20-61-16-50-9-26zm284 119-16 9-16 5-83 21-97 24-2 1 2 9 14 43 1 1h262l-1-5-8-20-12-25-10-18-16-24-9-12-7-9zm-227 63-49 13-55 16-25 8-4 12v3h13l9 5 12 11 7 7 12 17 10 19 10 25 12 35-1 5-13 15-6 4-3 1h-8l-6-3-6-8-4-16-6-25-7-16-9-14-13-13-8-7-6-8-5-12-3-14h-47l-41 15-35 14-28 12-17 8v3l10 7 35 5 31 7 29 9 13 5 8 6 3 6v8l-4 9-8 5-3 1h-7l-11-3h-5l5 5 19 14 18 13 1 4-20 61v3l6-2 29-15 30-15 28-13 29-13 43-18 44-17 36-13 50-17 62-20 43-13 9-6 36-26 19-14 18-13 1-2-254-1-19-58zm-143 41-24 8v1h24l3-9zm-267 18-6 21 3 1 16-7 5-2-5-5-11-8zm20 1 5 5 3 2 6-1 14-5v-1zm684 0-16 12-36 26-17 12 4 1 52-14 23-6-2-11-5-18-1-2zm-70 51m86 24-58 20-55 20-67 25-44 17-1 5 25 76 8 24 25 3h4l1 6-13 2-12 3 3 12 27 82 12 37h3l14-11 12-11 8-7 12-12 7-8 12-14 14-19 10-15 11-19 12-23 11-27 8-24 7-28 5-30 2-22v-49l-1-12zm-708 28-21 11-8 3v21l3 28 5 28 8 30 9 25 11 25 12 23 15 24 12 16 11 14 11 12 7 8 13 13 8 7 13 11 9 7 2-2 20-62 4-13-62 1-11-1-8-4-14-10 2-5 8-13 6-7 22-14 26-16 22-13 21-12 18-10 5-3 15-45 8-26-13-10-36-26-10-7-30-4-25-2-20-1-39-1zm167 13m304 46-57 23-39 16-48 20-56 24-11 6v1l72-1 8-6 4 1 6 4 56 2 51 4 48 5-2-9-18-55-11-34zm39 116-38 7-60 9 5 5 54 39 19 14 36 26 19 14 3 1-2-9-17-52-14-43-3-10zm-118 19-129 19-8 2-19 14-54 39-19 14-14 10-18 13-6 5 4 4 17 11 21 12 22 11 25 10 24 8 29 7 32 5 27 2h30l27-2 32-5 32-8 24-8 26-11 24-12 23-14 13-9-1-3-36-26-19-14-36-26-19-14-36-26-11-8zm-158 23m-7 1-59 8-14 2-20 61 1 2 19-14 54-39 19-14 7-5v-1z" fill="#00816F"/>
<path transform="translate(526)" d="m0 0h53l37 3 28 4 31 6 31 8 37 12 32 13 30 14 22 12 23 14 22 15 19 14 17 14 14 12 16 15 21 21 7 8 13 15 11 14 15 20 12 18 13 21 16 29 11 23 12 29 10 28 10 35 5 22v2l-10 2-14 1-2-5-9-36-12-36-12-29-14-29-12-22-13-21-15-22-13-17-8-10-11-13-24-26-17-16-10-9-11-9-15-12-18-13-23-15-24-14-27-14-27-12-35-13-35-10-26-6-37-6-32-3-21-1h-29l-34 2-33 4-32 6-32 8-26 8-34 13-28 13-25 13-25 15-22 15-19 14-17 14-10 9-8 7-16 15-15 16-10 11-9 11-14 18-12 17-10 15-9 15-12 21-13 26-13 31-11 31-8 29-7 31-5 32-3 32-1 22v26l2 35 4 33 5 28 10 40 12 36 12 29 14 29 12 22 16 26 12 17 16 21 11 13 9 11 11 11 7 8 8 8 8 7 13 12 11 9 15 12 18 13 23 15 24 14 27 14 27 12 35 13 35 10 26 6 37 6 32 3 21 1h29l34-2 33-4 32-6 32-8 26-8 34-13 28-13 25-13 25-15 22-15 19-14 17-14 10-9 8-7 16-15 15-16 10-11 9-11 14-18 12-17 13-20 13-22 15-29 12-27 11-29 10-33 8-34 6-37 3-32 1-22v-26l-2-35-4-36 7-3 14-4h3l4 28 3 36v54l-3 36-5 35-8 37-8 28-10 30-12 29-12 26-15 28-13 21-8 12-12 17-13 17-11 13-9 11-16 17-21 21-8 7-10 9-14 11-15 12-20 14-17 11-15 9-18 10-17 9-29 13-29 11-31 10-40 10-34 6-37 4-16 1h-53l-37-3-28-4-31-6-31-8-37-12-32-13-30-14-22-12-23-14-22-15-19-14-11-9-13-11-20-18-24-24-7-8-13-15-11-14-15-20-12-18-13-21-16-29-12-25-11-27-10-28-10-35-8-37-5-34-3-37v-54l3-37 5-34 8-37 8-28 10-30 11-27 13-28 15-28 13-21 10-15 10-14 13-17 11-13 9-11 16-17 22-22 8-7 15-13 14-11 16-12 30-20 15-9 18-10 17-9 29-13 29-11 31-10 40-10 34-6 37-4z" fill="#241F20"/>
<path transform="translate(522,169)" d="m0 0h26l-2 9-3 8-40 3-31 5-28 7-27 9-26 11-20 10-17 10-21 14-17 13-13 11-12 11-17 17-9 11-11 13-14 20-13 21-14 27-10 23-4 11-13 1 9 7-1 7-4 15 6-2 15-6 5 1 18 13 19 14 18 13 16 12 17 12 19 14 18 13 8 6v1l-12-1-28-3-34-2-39-1h-29l-21 11-5 2h-3l2 33 4 29 6 27 8 27 11 28 13 27 13 22 8 12 10 14 13 16 10 11 7 8 12 12 8 7 13 11 10 8-2 9 8-5 21 14 21 12 22 11 25 10 24 8 29 7 32 5 27 2h30l27-2 32-5 32-8 24-8 26-11 24-12 23-14 13-9 4 2 5 3-2-10 17-14 11-10 8-7 11-11 7-8 12-14 14-19 10-15 11-19 12-23 11-27 8-24 7-28 5-30 2-22v-49l-1-13 14-5h3l1 3 2 35-1 33-3 28-7 36-9 31-9 24-9 20-10 20-12 20-13 19-13 17-12 14-12 13-15 15-8 7-13 11-16 12-18 12-15 9-22 12-27 12-22 8-28 8-29 6-31 4-14 1h-40l-32-3-29-5-28-7-27-9-24-10-21-10-24-14-18-12-16-12-11-9-10-9-8-7-18-18-7-8-11-13-14-19-10-15-14-24-12-24-10-25-9-27-6-24-5-27-3-28v-18l-11 2h-23l-9-2-8-7-6-8v-11l4-10 7-12 11-12 8-8 15-11 18-11h2l2-12 7-25 8-23 13-30 14-26 12-19 10-14 10-13 11-13 9-10 24-24 11-9 12-10 18-13 19-12 18-10 22-11 28-11 21-7 32-8 31-5z" fill="#2A338F"/>
<path transform="translate(549,169)" d="m0 0h25l29 3 28 5 30 8 24 8 26 11 26 13 23 14 17 12 13 10 13 11 12 11 22 22 9 11 3 2 3 5 15 20 11 17 11 19 9 17 12 28 12 36 4 16 1 1 37-8 44-8 68-10 82-11 17-2v8l-7 3-70 20-50 15-51 16-55 18-42 14-93 33-56 21-55 21-7 2-1-5 17-12 19-14 54-39 19-14 18-13 12-9 55-15 24-6h3l-8-29 1-4 10-7-15-1-10-25-12-25-10-18-16-24-15-20-5 2-16 8-13 4-83 21-97 24h-3l-10-30 1-4 122-24 44-8 38-4h11l-3-5-23-23-11-9-12-10-18-13-19-12-22-12-21-10-29-11-28-8-30-6-24-3-29-2-5-15z" fill="#2A338F"/>
<path transform="translate(796,504)" d="m0 0 3 1-14 10-18 13-19 14-54 39-16 12 2 12-29 12-30 12-39 16-48 20-56 24-10 5h70l-4 4-14 10-18 13-19 14-14 10-18 13-7 5-17 3-52 7-13 1 1-7 25-76 10-30 22-12 44-22 28-13 29-13 43-18 44-17 36-13 50-17 62-20z" fill="#2A338F"/>
<path transform="translate(375,277)" d="m0 0h16l21 2 22 10 15 10 7 6 9 12 4 11v18l-5 15-8 15 21-4h5l-3 11-13 40-10 4-18 6h-165l3-2 55-20 39-14-3-2-21-8-11-7-10-9-7-11-4-11-2-17 3-14 7-12 11-11 13-8 12-5z" fill="#2A338F"/>
<path transform="translate(930,513)" d="m0 0h3l1 3 2 35-1 33-3 28-7 36-9 31-9 24-9 20-10 20-12 20-13 19-13 17-12 14-12 13-15 15-8 7-13 11-16 12-18 12-15 9-22 12-27 12-22 8-28 8-29 6-31 4-14 1h-40l-32-3-29-5-28-7-27-9-24-10-21-10-24-14-18-12-16-12-11-9-10-9-8-7-18-18-7-8-11-13-14-19-10-15-14-24-12-24-10-25-9-27-6-24-5-27-3-28v-18l9-3 7-2 1 1 2 31 4 29 6 27 8 27 11 28 13 27 13 22 8 12 10 14 13 16 10 11 7 8 12 12 8 7 13 11 10 8-2 9 8-5 21 14 21 12 22 11 25 10 24 8 29 7 32 5 27 2h30l27-2 32-5 32-8 24-8 26-11 24-12 23-14 13-9 4 2 5 3-2-10 17-14 11-10 8-7 11-11 7-8 12-14 14-19 10-15 11-19 12-23 11-27 8-24 7-28 5-30 2-22v-49l-1-13z" fill="#242021"/>
<path transform="translate(843,159)" d="m0 0 4 2 16 15 8 7 11 10 8 7 12 11 2 2-9 10-5-2-3-3h-4l-4 11-1 4v11l1 3-5 2-4 8-3 10v6l5 5v3l5 5 3 4h6l13-8 2-3 1-6 2 1h8l13-8 1-4-5-9v-2l10-6 4 1 17 28 15 24 9 15 4 11 1 11-3 9-4 6-2 4h-13l-10-4-3-2 1 3v7l-4 8-8 5h-2v6l2 4-11 7-4-2-15-25-1-4v-7l4-6 12-8 1-1v-9l-6-10h-3l-10 7 2 10-11 7-3-3-16-26-13-21-12-12-8-7-12-11-8-7-4-4 9-10 10 4 3-3-1-4-12-11-8-7-5-1-3 3 3 5 5 6-9 10-4-2-15-14-8-7-11-10 2-4 7-7 4 2 4 3h7l17-8 2-6 3 1h9l15-6 2-4-9-9 6-7zm9 40-19 8v3l12 11h2l6-20zm18 83m75 13-14 9v4l7 11 3 2h8l6-5v-8l-8-13z" fill="#EE3342"/>
<path transform="translate(549,169)" d="m0 0h25l29 3 28 5 30 8 24 8 26 11 26 13 23 14 17 12 13 10 13 11 12 11 22 22 9 11 3 2-17 11-16 9-16 5-83 21-97 24h-3l-10-30 1-4 122-24 44-8 38-4h11l-3-5-23-23-11-9-12-10-18-13-19-12-22-12-21-10-29-11-28-8-30-6-24-3-29-2-5-15z" fill="#2B348F"/>
<path transform="translate(630,51)" d="m0 0 14 1 16 5 10 6 5 4 1-4 9 1 15 3 1 4-6 28-9-1-19-4-2-11-5-6-11-4h-13l-3 3v6l5 4 6 2h8l3-1 4 6 11 5 9 4 8 6 5 6 2 6v13l-5 12-4 5-9 6-14 4h-17l-16-4-12-6-8-6-2-1v5l-4 1-24-5-1-2 6-28 4-1 29 6 2 9 5 5 10 4 5 1h11l2-1 1-6-5-5-3-1h-11l-4 2-3-6-5-4-17-6-6-4-7-8-2-6v-13l4-11 8-9 12-6z" fill="#EE3342"/>
<path transform="translate(522,169)" d="m0 0h26l-2 9-3 8-40 3-31 5-28 7-27 9-26 11-20 10-17 10-21 14-17 13-13 11-12 11-17 17-9 11-11 13-14 20-13 21-14 27-10 23-4 11-13 1 9 7-1 7-5 17-19 10-1-2 7-28 10-29 13-30 14-26 12-19 10-14 10-13 11-13 9-10 24-24 11-9 12-10 18-13 19-12 18-10 22-11 28-11 21-7 32-8 31-5z" fill="#251F21"/>
<path transform="translate(383,669)" d="m0 0h2l-2 9-18 55-13 40-1 2-14 1-48 1-11-1-8-4-15-11 2-5 8-13 7-8 22-14 26-16 22-13 21-12 18-10z" fill="#2A338F"/>
<path transform="translate(150,239)" d="m0 0 4 2 10 7-2 5-4 6v6l5 5 9 6 7 1 5-1 2 9 7 6 13 9 2 1 2-5 3-4v-11l-4-5-10-7 2-4 11-16 3-4 4 1 17 12 14 10v3l-12 17-13 18-13 19-11 15-14 20-2 1-13-9 2-5 6-9-1-5-9-7-8-5h-10l-3-11-5-2-10-7h-5l-6 7-4 6-11-7-3-2 2-5 14-20 13-18 13-19z" fill="#EE3342"/>
<path transform="translate(405,78)" d="m0 0h4l5 11v2l-9 5-1 1 1 7 6 12 7 2-2 4v8l12 28v4l-34 14-4-1-17-16-8-8-8-7-9-9 6 16 8 18 1 1h6l5-2 6 12v2l-35 15-6 2-5-11 1-4 6-3 1-1-1-7-5-12-4-3-4-1 2-6-1-6-5-12-1-1-7 1-5 1-5-12v-2l45-19 6-2 12 12 8 7 16 16 4 2-12-29-1-1-10 1-5-11 1-3z" fill="#EE3342"/>
<path transform="translate(476,434)" d="m0 0h9l9 5 12 11 8 8 12 17 10 19 10 25 12 35-1 5-13 15-7 5-3 1h-8l-6-3-6-7-4-12-5-24-5-15-8-15-7-9-10-10-8-7-6-7-5-11-3-10v-7h16l2-8z" fill="#2A338F"/>
<path transform="translate(268,152)" d="m0 0h14l11 4 13 7 7 1 2 13 4 13v14l-4 12-8 11-9 9-13 9-11 5-8 2h-13l-9-3-15-10-9-1 1-9-6-16v-13l4-11 7-11 10-10 13-9 11-5zm-13 24-8 5-3 5v10l6 8 7 3 3-1v10l4 6 6 5 9 1 8-4 4-5 1-2v-9l-6-9-7-4-4-1-1-9-7-8-2-1z" fill="#EE3342"/>
<path transform="translate(520,59)" d="m0 0h8l4 27v6l-19 3h-6l-3-11-2-3-3-1h-18l2 12v7l15-2h5l2 12v5l-13 2h-6l3 18 16-2 4-2 1-2v-15l18-3h7l4 28v5l-48 7-51 7-2-10v-5l12-2 2-1v-12l-2-10-6-4 4-6v-8l-2-10-3-2h-13l-2-14 1-1z" fill="#EE3342"/>
<path transform="translate(549,169)" d="m0 0h25l29 3 28 5 30 8 24 8 26 11 26 13 23 14 17 12 13 10 13 11 12 11 22 22 8 10v1l-12 1h-10l-7-8-19-19-11-9-12-10-18-13-19-12-22-12-21-10-29-11-28-8-30-6-24-3-29-2-5-15z" fill="#241F20"/>
<path transform="translate(722,91)" d="m0 0 5 1 32 16 19 10 32 16-1 5-13 26-5-1-18-9 1-5 4-8v-6l-4-1-8 16 1 6 1 3-7 2-6 10-3 6 1 6 10 5-6 13-5-1-50-25-1-3 6-11 6 2 2 1h6l5-8 4-10-2-8 7-2 5-8 5-11h-7l-8 14-5-1-18-9 2-6 12-24z" fill="#EE3342"/>
<path transform="translate(593,349)" d="m0 0 5 1 10 30v3l-66 18-51 15-14 4 2-9 13-40 1-2z" fill="#2A338F"/>
<path transform="translate(243,443)" d="m0 0h163l-3 2-38 14-35 14-28 12-17 8-5-1-13-10-14-10-18-13-10-7v-2z" fill="#2A338F"/>
<path transform="translate(559,694)" d="m0 0h54l51 4 47 5 2 1 5 15-1 3-38 7-61 9-13-10-14-10-18-13-14-10z" fill="#2B348F"/>
<path transform="translate(547,699)" d="m0 0 4 1 36 26 17 12v2l-59 9-75 11h-5l5-5 54-39 19-14z" fill="#2B348F"/>
<path transform="translate(652,962)" d="m0 0h7l4 23-1 5-12 2h-7l-3-13-5-1 3 15 5 6-2 3v9l2 9 4 1 7-1 2 12-8 2-36 6-5-1-1-11 9-2 1-1-1-11-2-7-4-2 2-4 1-5-2-14-4 2v15l-16 3h-3l-2-8-3-20 40-7z" fill="#00816F"/>
<path transform="translate(296,502)" d="m0 0 14 1 30 5 28 7 33 11 9 6 5 8v8l-4 9-5 4-7 3h-7l-19-5-17-12-19-14-36-26z" fill="#2A338F"/>
<path transform="translate(846,311)" d="m0 0h3l15 20 14 21 11 19 9 17 12 28 12 36 4 18-12 3h-5l-6-21-2-10 11-8-15-1-10-25-12-25-10-18-16-24-15-20 1-3z" fill="#252021"/>
<path transform="translate(886,837)" d="m0 0 4 2 3 4-4 5 1 4 5 8 3 1 3 8 8 12-1 4-10 11-11-6-6-3 9 15-2 4-10 10-11-6-7-4h-5l-3-5-6-4-7 1h-4l-3-3 1-4 19-19 4 2 3 4-2 2 1 4 11 6-9-16-3-5 2-4 7-7 10 5 12 7-7-11-5 1-5-5 2-5z" fill="#00816F"/>
<path transform="translate(135,586)" d="m0 0h9l2 13 4 37-7 2h-5l-1-1-1-8-1-1h-10l-7 2-2 3-4-2h-14l-5 2v10l-3 1h-10l-5-45v-6l12-1 1 10h10l10-2 2-3 4 2h11l7-2v-10z" fill="#00816F"/>
<path transform="translate(993,669)" d="m0 0 4 2 11 7 4 5 1 2v10l-13 42-3 1-6-2 1-9-8-3h-5l-2 1-1-4-8-2h-4l-3 7-6-1-2-1 2-9 10-33 5-8 7-4zm-18 19-4 4-1 7 8 3h7l3 3 9 3h3l2-6v-5l-5-4-7-1-3 1-3-4z" fill="#00816F"/>
<path transform="translate(828,895)" d="m0 0 5 5 1 2-6 5-1 3-1 12 6-3h7l6 5 3 4 6-2 5 6-5 5-11 8h-6l-8-9-4 1-1 7 3 1 4 1 2 3-1 4-19 14-5 2-4-5 1-3 2-1-1-7-5-5-3-1-2-7-4-5-5 1-3 1-4-7 13-10 11-8h2l4 7-1 5 5 6 2-14h-4l-4-7 14-10z" fill="#00816F"/>
<path transform="translate(951,726)" d="m0 0 5 1 3 2-1 7 7 4h7l2 4 18 9-3 9-6 11h-31l14 7 4-1 3-3 6 3-1 5-9 17-5-1-3-3 2-6-12-4-3 1-3-5-10-4-2 5-6-2-2-1 2-6 11-22 30 1-17-8-1 4-5-1-3-2 1-5z" fill="#00816F"/>
<path transform="translate(128,642)" d="m0 0 2 1 7 27-1 3-14 10-9 7 17-4v-5l4-2h5l5 19v4l-8 1-2-5-12 1-1 4-8-1-18 4-5-18 1-5 19-14 4-4-18 4v7l-8 2-5-18-1-6 8-2 2 6 12-3 3-3h9l6-1-1-7z" fill="#00816F"/>
<path transform="translate(713,963)" d="m0 0h4l2 8-5 2 2 4 7 6 3 1 3 7 6 6 6-1 2 5v4l-28 10h-4l-2-5v-3l4-2-1-3-10 3-6 2-1 4 8-1 2 5-1 4-23 8h-2l-2-5 1-4 4-1 1-13-1-5 2-3 1-13-8 2-2-5 1-4zm-17 22v11l9-2-2-4-5-5z" fill="#00816F"/>
<path transform="translate(133,709)" d="m0 0h7l8 4 6 7 4 10 1 9 2 1 3 8v3l-13 5h-2l-4-10 1-4h2l1-7-3-9-5 1v6l3 4v9l1 8-3 7-5 4-3 1h-9l-9-6-6-10-1-3-1-12h-3l-4-10v-3l14-5 6 13-1 3h-2v8l3 7 4 1 1-4-3-5-1-3v-8l-1-3v-7l4-6 5-3z" fill="#00816F"/>
<path transform="translate(449,982)" d="m0 0h11l13 4 6 4 6 7 4 16v3l-9 12-6 5-6 2h-12l-11-3-7-4-7-8-2-9-1-7-2-3 5-4 6-10 8-4zm7 11-4 4v11l-3 3-1 8 2 4 4 2h6l5-5v-9l-1-2 3-3 1-2v-7l-4-4z" fill="#00816F"/>
<path transform="translate(923,794)" d="m0 0h8l13 2 5 9 4 7 1 4v7l-4 11-7 9-7 6-8 3h-7l-9-3h-6l-2-6-5-6-2-6v-7l4-12 7-9 7-6zm-7 16-5 5v7l6 5h6l1 4 4 4 7 1 5-4 1-2v-6l-5-5-2-1h-6l-1-4-5-4z" fill="#00816F"/>
<path transform="translate(1e3 600)" d="m0 0 5 2 11 7 5 6 2 6v16l-4 12-7 8-8 3-10 2-3 1-3-3-11-6-4-6-2-6v-15l4-12 7-8 5-3zm-14 22-4 3-1 9 4 4 6 1 5-2 3 3 9 1 5-4 1-7-4-5-2-1h-8l-3 1-4-3z" fill="#00816F"/>
<path transform="translate(350,945)" d="m0 0 5 1 39 18 6 3-1 5-6 13-13-5 1-10-8-5-4 7v2l8 4-3 9-5-1-6-3-1 5-2 4 8 4 4-1 3-6 5 1 8 4-4 10-3 7-6-1-41-19-4-2 2-6 1-2 8 2h2l3-9-1-6 5-1 2-6 1-6-6-2 1-5z" fill="#00816F"/>
<path transform="translate(776,932)" d="m0 0 3 1 7 13-1 4-9 5-3-1-3-5-7 1-4 3 4 7 6-2 4-1 4 7v2l-8 4 2 5 1 4 9-5v-6l-1-5 9-5h3l8 15-1 3-31 16-15 8h-2l-3-6v-2l6-2-1-6-3-5v-2l-5-1v-7l-4-6-6 1h-3l-3-5 1-3 29-15z" fill="#00816F"/>
<path transform="translate(253,875)" d="m0 0 4 2 13 11 9 7-3 5-3 2-6-1-5 6v5l-7 3-3 4 1 7 5 3 6-1 4-6v-4l7-3 4-7v-2l-3-1 5-7 5 3 14 12 1 2-5 6-5-3-4 2-4 5v5l-6 2-7 8-4 2h-7l-8-4-11-9-6-8-1-2v-8l6-8 2-3v-5l6-2 5-6-2-4v-4z" fill="#00816F"/>
<path transform="translate(497,991)" d="m0 0 49 3 6 1v12l-1 7h-13l-1-1-1-8-3-2-8-1-1 11h10l1 2-1 8h-11l1 9 9 2v8h-17l-22-2v-8l2-1h6l1-1v-12l-2-3 3-3v-10l-8-3z" fill="#00816F"/>
<path transform="translate(302,915)" d="m0 0 5 2 19 12 22 14-1 4-8 13-4-1-9-6 4-7v-3h-2l-4 7-1 6-5 3-4 7v3l5 4-4 6-4-1-26-16 4-7 9 1 5-9v-4l5-3 5-9-4 1-4 7-5-2-8-5 6-11z" fill="#00816F"/>
<path transform="translate(165,754)" d="m0 0h2l15 27 11 19-4 4-13 7-6-9-1-4 7-4 1-4-10 6-3 4-7 1-6 4 2 8-5 3h-3l-16-28v-2l6-3h2l3 5 4-1 7-4 2-4 7-1 5-3h2v-3l-6 2-5 2-6-9-1-4z" fill="#00816F"/>
<path transform="translate(215,834)" d="m0 0h3l7 8 12 13 9 10 7 8-6 7-8 7-7-6-3-5 6-6-1-3-7 6-1 6-6 1-7 6 2 5v4l-5 4-7-7-7-8-8-9 2-4 4-3 4 4 4-1 4-4h2l1-7h5l7-6v-2l-4 1-6 4-8-8-1-3 12-11z" fill="#00816F"/>
<path transform="translate(193,803)" d="m0 0 4 2 13 18 5 7-2 4-5 2-3-4-5 1-5 4-1 5h-6l-7 5 1 6 1 3-7 4-10-13-11-15 5-5h3l2 4 6-2 6-5 2-4 6-1 5-4-1-5v-4z" fill="#00816F"/>
<path transform="translate(723,705)" d="m0 0 15 1 14 2 1 6-22 5h-4l-4-12z" fill="#323A93"/>
<path transform="translate(151,321)" d="m0 0" fill="#EE3342"/>
</svg>
